<svg width="25" height="24" viewBox="0 0 25 24" fill="none" xmlns="http://www.w3.org/2000/svg">
<path d="M15.76 22.2498H9.23998C4.32998 22.2498 2.22998 20.1498 2.22998 15.2398V15.1098C2.22998 10.6698 3.97998 8.52978 7.89998 8.15978C8.29998 8.12978 8.67998 8.42978 8.71998 8.83978C8.75998 9.24978 8.45998 9.61978 8.03998 9.65978C4.89998 9.94978 3.72998 11.4298 3.72998 15.1198V15.2498C3.72998 19.3198 5.16998 20.7598 9.23998 20.7598H15.76C19.83 20.7598 21.27 19.3198 21.27 15.2498V15.1198C21.27 11.4098 20.08 9.92978 16.88 9.65978C16.47 9.61978 16.16 9.25978 16.2 8.84978C16.24 8.43978 16.59 8.12978 17.01 8.16978C20.99 8.50978 22.77 10.6598 22.77 15.1298V15.2598C22.77 20.1498 20.67 22.2498 15.76 22.2498Z" fill="white"/>
<path d="M12.5 15.63C12.09 15.63 11.75 15.29 11.75 14.88V2C11.75 1.59 12.09 1.25 12.5 1.25C12.91 1.25 13.25 1.59 13.25 2V14.88C13.25 15.3 12.91 15.63 12.5 15.63Z" fill="white"/>
<path d="M12.4998 16.7498C12.3098 16.7498 12.1198 16.6798 11.9698 16.5298L8.61984 13.1798C8.32984 12.8898 8.32984 12.4098 8.61984 12.1198C8.90984 11.8298 9.38984 11.8298 9.67984 12.1198L12.4998 14.9398L15.3198 12.1198C15.6098 11.8298 16.0898 11.8298 16.3798 12.1198C16.6698 12.4098 16.6698 12.8898 16.3798 13.1798L13.0298 16.5298C12.8798 16.6798 12.6898 16.7498 12.4998 16.7498Z" fill="white"/>
</svg>
